<svg version="1.2" baseProfile="tiny-ps" xmlns="http://www.w3.org/2000/svg" viewBox="0 0 114 108" width="110" height="104">
	<title>screen 1</title>
	<style>
		tspan { white-space:pre }
		.shp0 { fill: #2987f5 } 
		.shp1 { fill: #ffffff } 
	</style>
	<g id="screen 1">
		<path id="Rounded Rectangle 1" class="shp0" d="M33 11L83 11C96.81 11 108 22.19 108 36L108 56C108 69.81 96.81 81 83 81L8 81L8 36C8 22.19 19.19 11 33 11Z" />
		<path id="Polygon 1" class="shp0" d="M70.51 61.97L7.94 98.09L7.94 61.68L70.51 61.97Z" />
		<g id="Group 1">
			<path id="Rounded Rectangle 2 copy" class="shp1" d="M77.5 29L79.5 29C80.88 29 82 30.12 82 31.5L82 61.5C82 62.88 80.88 64 79.5 64L77.5 64C76.12 64 75 62.88 75 61.5L75 31.5C75 30.12 76.12 29 77.5 29Z" />
			<path id="Rounded Rectangle 2 copy 2" class="shp1" d="M37.5 29L39.5 29C40.88 29 42 30.12 42 31.5L42 61.5C42 62.88 40.88 64 39.5 64L37.5 64C36.12 64 35 62.88 35 61.5L35 31.5C35 30.12 36.12 29 37.5 29Z" />
		</g>
	</g>
</svg>